<?xml version="1.0" standalone="yes"?>
<svg xmlns="http://www.w3.org/2000/svg" width="180" height="180">
<path style="fill:#000000; stroke:none;" d="M0 0L0 180L180 180L180 0L0 0z"/>
<path style="fill:#090a0a; stroke:none;" d="M81 22.5177C42.6679 30.6959 43.6568 89.1943 82 96.3812C87.1257 97.3419 92.8901 97.4212 98 96.331C103.3 95.2002 108.717 92.9676 113 89.6096C117.027 86.4521 120.734 82.4964 123.201 78C138.885 49.4104 112.52 15.7929 81 22.5177z"/>
<path style="fill:#484848; stroke:none;" d="M77 23L78 24L77 23M101 23L102 24L101 23z"/>
<path style="fill:#ffffff; stroke:none;" d="M106 25L107 26L106 25z"/>
<path style="fill:#3f3f3f; stroke:none;" d="M69 27L70 28L69 27z"/>
<path style="fill:#000000; stroke:none;" d="M87 27L99 47C91.279 44.7178 82.0247 46 74 46C77.6753 57.6143 86.3521 68.5862 92.6003 79C94.4147 82.0241 96.6889 88.1052 100.329 89.2917C107.276 91.5562 116.385 80.0403 119 75L91 75C97.9335 62.5461 105.623 49.5311 114 38C107.447 29.1235 97.4362 27.0011 87 27M62 42L90 42C88.313 38.0851 85.6872 31.1518 81.6713 29.1212C74.7319 25.6123 65.0298 37.1696 62 42z"/>
<path style="fill:#7f7f3f; stroke:none;" d="M111 28L112 29L111 28z"/>
<path style="fill:#555555; stroke:none;" d="M65 30L66 31L65 30z"/>
<path style="fill:#55552a; stroke:none;" d="M83 30L84 31L83 30z"/>
<path style="fill:#555555; stroke:none;" d="M72 31L73 32L72 31z"/>
<path style="fill:#7f7f7f; stroke:none;" d="M86 35L87 36L86 35M64 38L65 39L64 38z"/>
<path style="fill:#3f3f3f; stroke:none;" d="M121 38L122 39L121 38z"/>
<path style="fill:#555555; stroke:none;" d="M112 39L113 40L112 39z"/>
<path style="fill:#ffffff; stroke:none;" d="M56 41L57 42L56 41z"/>
<path style="fill:#000000; stroke:none;" d="M117 41C111.607 50.7232 104.407 59.7858 100 70C105.111 70 116.21 72.1021 120.436 68.9722C122.711 67.2869 122.855 63.5589 122.96 61C123.245 54.0487 121.473 46.4193 117 41z"/>
<path style="fill:#555555; stroke:none;" d="M96 42L97 43L96 42z"/>
<path style="fill:#383838; stroke:none;" d="M116 42L117 43L116 42z"/>
<path style="fill:#7f7f7f; stroke:none;" d="M124 43L125 44L124 43z"/>
<path style="fill:#000000; stroke:none;" d="M62 77C66.1155 73.0126 73.1534 63.9667 73.3318 58C73.4794 53.0634 68.4563 45.4883 63.0394 46.1674C58.9475 46.6805 58.2424 50.5562 57.6157 54C56.2019 61.7703 58.1674 70.1916 62 77z"/>
<path style="fill:#484848; stroke:none;" d="M53 49L54 50L53 49z"/>
<path style="fill:#090909; stroke:none;" d="M79 50C82.4122 56.485 85.9539 62.8853 90 69C94.7748 63.8999 98.3098 56.4275 101 50C94.5334 50.2149 92.6838 54.1559 91 60C87.4767 54.659 85.9695 50.2282 79 50z"/>
<path style="fill:#ffffff; stroke:none;" d="M76 51L77 52L76 51z"/>
<path style="fill:#383838; stroke:none;" d="M80 52L81 53L80 52z"/>
<path style="fill:#484824; stroke:none;" d="M127 53L128 54L127 53z"/>
<path style="fill:#ffffff; stroke:none;" d="M52 54L53 55L52 54M92 55L93 56L92 55z"/>
<path style="fill:#7f7f7f; stroke:none;" d="M91 57L92 58L91 57z"/>
<path style="fill:#3f3f3f; stroke:none;" d="M96 58L97 59L96 58z"/>
<path style="fill:#ffffff; stroke:none;" d="M105 60L106 61L105 60z"/>
<path style="fill:#ffff7f; stroke:none;" d="M57 63L58 64L57 63z"/>
<path style="fill:#000000; stroke:none;" d="M77 63C74.2899 67.4122 66.6718 75.6825 67.1134 80.9961C67.3699 84.0819 70.6024 86.2138 73.0008 87.6474C80.0015 91.832 87.1061 92 95 92C89.711 82.464 84.1478 71.2252 77 63z"/>
<path style="fill:#7f7f7f; stroke:none;" d="M52 64L53 65L52 64z"/>
<path style="fill:#aaaaaa; stroke:none;" d="M127 65L128 66L127 65z"/>
<path style="fill:#ffffff; stroke:none;" d="M79 66L80 67L79 66M88 66L89 67L88 66z"/>
<path style="fill:#7f7f7f; stroke:none;" d="M74 67L75 68L74 67z"/>
<path style="fill:#482448; stroke:none;" d="M91 67L92 68L91 67z"/>
<path style="fill:#ffffff; stroke:none;" d="M58 68L59 69L58 68z"/>
<path style="fill:#3f1f3f; stroke:none;" d="M53 69L54 70L53 69z"/>
<path style="fill:#aaaaaa; stroke:none;" d="M121 69L122 70L121 69z"/>
<path style="fill:#3f3f3f; stroke:none;" d="M82 71L83 72L82 71z"/>
<path style="fill:#555555; stroke:none;" d="M69 75L70 76L69 75z"/>
<path style="fill:#ffffff; stroke:none;" d="M124 75L125 76L124 75z"/>
<path style="fill:#383838; stroke:none;" d="M92 78L93 79L92 78z"/>
<path style="fill:#454545; stroke:none;" d="M114 81L115 82L114 81z"/>
<path style="fill:#3f3f3f; stroke:none;" d="M66 82L67 83L66 82z"/>
<path style="fill:#484848; stroke:none;" d="M113 82L114 83L113 82z"/>
<path style="fill:#555555; stroke:none;" d="M67 83L68 84L67 83z"/>
<path style="fill:#3a3a3a; stroke:none;" d="M112 83L113 84L112 83z"/>
<path style="fill:#3f3f3f; stroke:none;" d="M62 85L63 86L62 85z"/>
<path style="fill:#5555aa; stroke:none;" d="M117 85L118 86L117 85z"/>
<path style="fill:#aaaa55; stroke:none;" d="M108 86L109 87L108 86z"/>
<path style="fill:#7f7f7f; stroke:none;" d="M116 86L117 87L116 86z"/>
<path style="fill:#ffffff; stroke:none;" d="M64 87L65 88L64 87z"/>
<path style="fill:#383838; stroke:none;" d="M74 88L75 89L74 88z"/>
<path style="fill:#ffffff; stroke:none;" d="M98 88L99 89L98 88z"/>
<path style="fill:#383838; stroke:none;" d="M99.6667 90.3333C99.2222 90.7778 100.278 90.7222 100.333 90.6667C100.778 90.2222 99.7222 90.2778 99.6667 90.3333z"/>
<path style="fill:#555555; stroke:none;" d="M71 92L72 93L71 92M82 96L83 97L82 96z"/>
<path style="fill:#ffffff; stroke:none;" d="M97 96L98 97L97 96z"/>
<path style="fill:#090a0a; stroke:none;" d="M88 117L79 117L79 121L83 121L83 125C76.8371 124.8 68.3281 118.138 76.1481 112.622C80.2485 109.73 84.1028 114.074 87 109C83.8611 107.242 80.7187 105.664 77 106.41C68.6873 108.076 65.239 117.794 69.4421 124.815C72.5265 129.967 83.1953 132.711 86.9722 126.721C88.6428 124.072 87.9997 119.989 88 117M25 107C26.0569 113.142 28.7165 119.274 31.2045 124.981C32.0573 126.937 33.2155 129.885 35.8835 129.534C38.4624 129.195 39.2647 126.028 39.9992 123.995C42.0368 118.358 44.4214 112.783 46 107C38.5287 107.58 36.6529 116.486 36 123C33.3439 117.036 32.6038 107.606 25 107M50 107L50 129L64 129L64 125L54 125C55.4275 120.298 58.4614 120.054 63 120L63 116C59.9605 116.724 57.1217 116.974 54 117C54.9364 111.128 58.7488 111.019 64 111L64 107L50 107z"/>
<path style="fill:#55552a; stroke:none;" d="M73 107L74 108L73 107z"/>
<path style="fill:#555555; stroke:none;" d="M84 107L85 108L84 107z"/>
<path style="fill:#090a0a; stroke:none;" d="M93 107L93 129L108 129L108 125L98 125L98 120L106 120L107 116L98 116L98 112L108 112L108 107L93 107M113 107C114.695 114.121 114 121.717 114 129L118 129L118 121C123.647 123.934 123.854 129.763 131 130C130.02 127.306 127.647 124.169 127.553 121.285C127.413 116.993 131.928 113.763 128.258 109.434C125.007 105.599 117.467 107 113 107M141 107C139.121 114.931 134.879 122.069 133 130C137.287 129.668 138.449 127.059 142.127 125.599C144.244 124.758 146.772 125.008 149 125C150.099 128.321 151.59 128.737 155 129C153.138 121.144 150.424 107.313 141 107z"/>
<path style="fill:#7f7f7f; stroke:none;" d="M49 108L50 109L49 108z"/>
<path style="fill:#ffffff; stroke:none;" d="M49 109L50 110L49 109z"/>
<path style="fill:#7f7f7f; stroke:none;" d="M39 110L40 111L39 110M49 110L50 111L49 110z"/>
<path style="fill:#555555; stroke:none;" d="M87 110L88 111L87 110M129 110L130 111L129 110z"/>
<path style="fill:#3f3f3f; stroke:none;" d="M44 111L45 112L44 111z"/>
<path style="fill:#7f7f00; stroke:none;" d="M49 111L50 112L49 111z"/>
<path style="fill:#121b12; stroke:none;" d="M55 111C57.8897 112.213 60.8741 111.998 64 112C61.1103 110.787 58.1259 111.002 55 111z"/>
<path style="fill:#666666; stroke:none;" d="M81 111L82 112L81 111z"/>
<path style="fill:#383838; stroke:none;" d="M86 111L87 112L86 111z"/>
<path style="fill:#3f3f3f; stroke:none;" d="M26 112L27 113L26 112z"/>
<path style="fill:#7f7f7f; stroke:none;" d="M49.3333 112.667C49.2778 112.722 49.2222 113.778 49.6667 113.333C49.7222 113.278 49.7778 112.222 49.3333 112.667z"/>
<path style="fill:#000000; stroke:none;" d="M118 112L118 117C120.442 116.89 122.623 116.572 125 116C123.777 112.313 121.692 112.12 118 112z"/>
<path style="fill:#5555aa; stroke:none;" d="M124 112L125 113L124 112z"/>
<path style="fill:#3f3f3f; stroke:none;" d="M139 112L140 113L139 112z"/>
<path style="fill:#555555; stroke:none;" d="M38 113L39 114L38 113M32 114L33 115L32 114z"/>
<path style="fill:#ffffff; stroke:none;" d="M49 114L50 115L49 114z"/>
<path style="fill:#ffff00; stroke:none;" d="M49 115L50 116L49 115z"/>
<path style="fill:#3f3f3f; stroke:none;" d="M37 116L38 117L37 116z"/>
<path style="fill:#7f7f00; stroke:none;" d="M49.3333 116.667C49.2778 116.722 49.2222 117.778 49.6667 117.333C49.7222 117.278 49.7778 116.222 49.3333 116.667z"/>
<path style="fill:#666633; stroke:none;" d="M67 116L68 117L67 116z"/>
<path style="fill:#ffffff; stroke:none;" d="M137 117L138 118L137 117z"/>
<path style="fill:#7f7f7f; stroke:none;" d="M49 118L50 119L49 118z"/>
<path style="fill:#7f007f; stroke:none;" d="M142 118L143 119L142 118z"/>
<path style="fill:#482424; stroke:none;" d="M41 119L42 120L41 119z"/>
<path style="fill:#7f7f00; stroke:none;" d="M49.3333 119.667C49.2778 119.722 49.2222 120.778 49.6667 120.333C49.7222 120.278 49.7778 119.222 49.3333 119.667z"/>
<path style="fill:#484848; stroke:none;" d="M67 119L68 120L67 119z"/>
<path style="fill:#7f7f7f; stroke:none;" d="M49 121L49 125C49.7102 123.241 49.7102 122.759 49 121z"/>
<path style="fill:#3f3f3f; stroke:none;" d="M152 121L153 122L152 121M35 122L36 123L35 122z"/>
<path style="fill:#7f7f7f; stroke:none;" d="M121 122L122 123L121 122z"/>
<path style="fill:#3f3f3f; stroke:none;" d="M68 123L69 124L68 123z"/>
<path style="fill:#ffffff; stroke:none;" d="M49 125L50 126L49 125z"/>
<path style="fill:#7f7f00; stroke:none;" d="M49.3333 126.667C49.2778 126.722 49.2222 127.778 49.6667 127.333C49.7222 127.278 49.7778 126.222 49.3333 126.667z"/>
<path style="fill:#7f7f7f; stroke:none;" d="M139 126L140 127L139 126M154 126L155 127L154 126z"/>
<path style="fill:#555555; stroke:none;" d="M71 127L72 128L71 127z"/>
<path style="fill:#7f0000; stroke:none;" d="M49 128L50 129L49 128z"/>
<path style="fill:#1c1c1c; stroke:none;" d="M50 129C54.2165 130.769 59.4589 130 64 130C59.7835 128.231 54.5411 129 50 129M93 129C97.4714 130.876 103.183 130 108 130C103.529 128.124 97.8166 129 93 129z"/>
<path style="fill:#1d1d1d; stroke:none;" d="M113 129C114.769 129.779 116.036 129.912 118 130C116.231 129.221 114.964 129.088 113 129z"/>
<path style="fill:#1c1c1c; stroke:none;" d="M150 129C151.769 129.779 153.036 129.912 155 130C153.231 129.221 151.964 129.088 150 129z"/>
<path style="fill:#0b0b0b; stroke:none;" d="M80 149C76.5804 149.054 74.2 148.55 71 150C74.3268 153.599 84.4129 155.987 83.7932 148.001C83.5005 144.228 79.2825 142.521 77 140L83 142L84 138C80.2681 136.436 70.4887 135.481 72.8511 142.791C73.7705 145.636 77.7391 147.369 80 149z"/>
<path style="fill:#555555; stroke:none;" d="M80 136L81 137L80 136z"/>
<path style="fill:#0a0a0b; stroke:none;" d="M40 137C40.9517 140.329 44.512 154.42 49.625 152.338C53.5282 150.749 55.5677 140.693 57 137C50.9548 137.47 49.8115 141.51 49 147C46.7756 142.007 46.129 137.487 40 137z"/>
<path style="fill:#aaaaaa; stroke:none;" d="M61 137L62 138L61 137z"/>
<path style="fill:#0a0a0a; stroke:none;" d="M62 137L62 153L66 153L66 137L62 137M90 137C90 141.005 88.8986 147.094 91.179 150.606C93.9357 154.85 101.155 154.423 103.258 149.786C104.898 146.17 104 140.886 104 137L100 137C99.9994 142.321 100.343 146.383 96 150C94.3882 145.577 94.0031 141.682 94 137L90 137M108 153C110.688 152.6 113.364 150.597 116 150.597C118.636 150.597 121.312 152.6 124 153C123.144 149.302 121.014 137.636 116 137.636C110.986 137.636 108.856 149.302 108 153z"/>
<path style="fill:#ffffff; stroke:none;" d="M118 137L119 138L118 137z"/>
<path style="fill:#090a0a; stroke:none;" d="M129 137L129 153L140 153L140 149L133 149L133 137L129 137z"/>
<path style="fill:#00ffff; stroke:none;" d="M45 138L46 139L45 138z"/>
<path style="fill:#ffffff; stroke:none;" d="M61 138L62 139L61 138z"/>
<path style="fill:#aaaaaa; stroke:none;" d="M61 139L61 143C61.7102 141.241 61.7102 140.759 61 139z"/>
<path style="fill:#7f7f7f; stroke:none;" d="M55 140L56 141L55 140z"/>
<path style="fill:#ffffff; stroke:none;" d="M77 140L78 141L77 140z"/>
<path style="fill:#3f3f3f; stroke:none;" d="M79 140L80 141L79 140z"/>
<path style="fill:#555555; stroke:none;" d="M42 143L43 144L42 143z"/>
<path style="fill:#3f3f3f; stroke:none;" d="M49 143L50 144L49 143z"/>
<path style="fill:#ffffff; stroke:none;" d="M61 143L61 149C61.9511 146.715 61.9511 145.285 61 143z"/>
<path style="fill:#3f3f3f; stroke:none;" d="M116 143L117 144L116 143z"/>
<path style="fill:#7f7f7f; stroke:none;" d="M53 145L54 146L53 145z"/>
<path style="fill:#ffffff; stroke:none;" d="M74 145L75 146L74 145z"/>
<path style="fill:#555555; stroke:none;" d="M48 146L49 147L48 146z"/>
<path style="fill:#363636; stroke:none;" d="M84.3333 147.667C84.2778 147.722 84.2222 148.778 84.6667 148.333C84.7222 148.278 84.7778 147.222 84.3333 147.667z"/>
<path style="fill:#ff7f7f; stroke:none;" d="M99 147L100 148L99 147z"/>
<path style="fill:#ffffff; stroke:none;" d="M44 148L45 149L44 148z"/>
<path style="fill:#aaaaaa; stroke:none;" d="M61 149L62 150L61 149z"/>
<path style="fill:#ffffff; stroke:none;" d="M84 149L85 150L84 149z"/>
<path style="fill:#333322; stroke:none;" d="M96.6667 149.333C96.2222 149.778 97.2778 149.722 97.3333 149.667C97.7778 149.222 96.7222 149.278 96.6667 149.333z"/>
<path style="fill:#ffffff; stroke:none;" d="M61 150L62 151L61 150z"/>
<path style="fill:#3f3f3f; stroke:none;" d="M108 150L109 151L108 150z"/>
<path style="fill:#7f7f7f; stroke:none;" d="M123 150L124 151L123 150z"/>
<path style="fill:#aaaaaa; stroke:none;" d="M61.3333 151.667C61.2778 151.722 61.2222 152.778 61.6667 152.333C61.7222 152.278 61.7778 151.222 61.3333 151.667z"/>
<path style="fill:#ffffff; stroke:none;" d="M92 152L93 153L92 152z"/>
<path style="fill:#7f7f7f; stroke:none;" d="M101 152L102 153L101 152z"/>
<path style="fill:#ffffff; stroke:none;" d="M112 152L113 153L112 152z"/>
</svg>
